#!OML:ASF H:\Dans Jumps\Project 1\Capture day 1\Session 1\subject.ASF
:FULLY-SPECIFIED
:DEGREES
74
root 0.575061 17.5532 -13.8952 7.44627 -0.598345 -1.42089
lowerback -2.22873 -0.557482 0.115858
upperback 3.14661 -0.827351 1.90676
thorax 4.52252 -0.443091 1.85399
lowerneck -14.5005 0.459286 -1.90556
upperneck 29.3297 1.09349 0.2898
head 12.023 0.310386 0.594579
rclavicle -2.98177e-016 -1.74931e-014
rhumerus -24.3973 -17.2089 -77.8419
rradius 24.618
rwrist 32.6403
rhand -18.2739 -26.2556
rfingers 7.12502
rthumb 8.00595 -56.084
lclavicle -2.98177e-016 -1.74931e-014
lhumerus -22.3518 2.11971 85.3098
lradius 19.5118
lwrist 3.88736
lhand -23.5385 -2.73425
lfingers 7.12502
lthumb 2.92307 27.2255
rfemur -14.5324 -2.94592 20.7376
rtibia 21.7262
rfoot -14.0681 -2.28411
rtoes 9.9221
lfemur -14.1486 8.98843 -19.6636
ltibia 19.4873
lfoot -11.4368 3.80246
ltoes -1.59613
75
root 0.574322 17.5533 -13.8951 7.4519 -0.60207 -1.42076
lowerback -2.2327 -0.555828 0.121636
upperback 3.15006 -0.825513 1.90684
thorax 4.52822 -0.442016 1.85092
lowerneck -14.5057 0.458213 -1.9154
upperneck 29.3239 1.0917 0.299787
head 12.0216 0.309835 0.599759
rclavicle -4.37326e-015 4.09496e-014
rhumerus -24.3914 -17.2239 -77.8382
rradius 24.609
rwrist 32.6514
rhand -18.2627 -26.262
rfingers 7.12502
rthumb 8.01679 -56.0899
lclavicle -4.37326e-015 4.09496e-014
lhumerus -22.3465 2.14076 85.3131
lradius 19.5128
lwrist 3.86117
lhand -23.526 -2.68814
lfingers 7.12502
lthumb 2.93515 27.2714
rfemur -14.5371 -2.94778 20.7397
rtibia 21.7242
rfoot -14.0709 -2.27609
rtoes 9.93556
lfemur -14.1539 8.99523 -19.6624
ltibia 19.4881
lfoot -11.4387 3.80044
ltoes -1.58963
76
root 0.573508 17.5533 -13.895 7.45493 -0.6046 -1.42171
lowerback -2.23403 -0.555415 0.125941
upperback 3.15408 -0.825329 1.90894
thorax 4.53314 -0.441852 1.85068
lowerneck -14.5074 0.457411 -1.92673
upperneck 29.3147 1.09111 0.30812
head 12.0182 0.309476 0.604702
rclavicle -2.98177e-015 3.97569e-015
rhumerus -24.3827 -17.2392 -77.8318
rradius 24.5945
rwrist 32.6683
rhand -18.2628 -26.2496
rfingers 7.12502
rthumb 8.01669 -56.0776
lclavicle -2.98177e-015 3.97569e-015
lhumerus -22.3449 2.16824 85.3169
lradius 19.5183
lwrist 3.83114
lhand -23.5091 -2.63635
lfingers 7.12502
lthumb 2.95145 27.323
rfemur -14.5385 -2.94666 20.7431
rtibia 21.7222
rfoot -14.0752 -2.2705
rtoes 9.96165
lfemur -14.1566 8.99804 -19.659
ltibia 19.4902
lfoot -11.4409 3.80118
ltoes -1.58025
77
root 0.572665 17.5533 -13.8948 7.45524 -0.606214 -1.42212
lowerback -2.23209 -0.554434 0.129986
upperback 3.15821 -0.824289 1.90999
thorax 4.53626 -0.441247 1.84956
lowerneck -14.5016 0.456343 -1.93259
upperneck 29.2992 1.08969 0.312146
head 12.0108 0.308884 0.606889
rclavicle 1.07344e-014 -2.26615e-014
rhumerus -24.3758 -17.2561 -77.8249
rradius 24.5794
rwrist 32.6887
rhand -18.2715 -26.2257
rfingers 7.12502
rthumb 8.00831 -56.054
lclavicle 1.07344e-014 -2.26615e-014
lhumerus -22.3455 2.18564 85.3222
lradius 19.5252
lwrist 3.80651
lhand -23.4893 -2.58579
lfingers 7.12502
lthumb 2.97059 27.3733
rfemur -14.5373 -2.94571 20.746
rtibia 21.7206
rfoot -14.08 -2.26622
rtoes 9.98615
lfemur -14.157 8.99867 -19.6554
ltibia 19.4934
lfoot -11.4435 3.80346
ltoes -1.57139
78
root 0.57182 17.5533 -13.8947 7.45506 -0.605517 -1.42222
lowerback -2.23034 -0.554249 0.132748
upperback 3.16375 -0.824296 1.91129
thorax 4.54103 -0.441221 1.84937
lowerneck -14.4967 0.455718 -1.93541
upperneck 29.282 1.08861 0.314382
head 12.0029 0.308568 0.607925
rclavicle -1.83876e-014 9.93923e-015
rhumerus -24.3668 -17.2692 -77.819
rradius 24.5666
rwrist 32.7073
rhand -18.2858 -26.191
rfingers 7.12502
rthumb 7.99448 -56.0198
lclavicle -1.83876e-014 9.93923e-015
lhumerus -22.3452 2.19297 85.3308
lradius 19.5328
lwrist 3.79313
lhand -23.4708 -2.53348
lfingers 7.12502
lthumb 2.98841 27.4253
rfemur -14.5355 -2.94519 20.7488
rtibia 21.7196
rfoot -14.0838 -2.26479
rtoes 10.0015
lfemur -14.1581 8.99774 -19.6521
ltibia 19.4976
lfoot -11.4461 3.80498
ltoes -1.56931
79
root 0.570947 17.5532 -13.8947 7.45525 -0.603855 -1.42171
lowerback -2.22915 -0.554592 0.134476
upperback 3.16984 -0.824964 1.91218
thorax 4.54671 -0.441557 1.84929
lowerneck -14.4935 0.455683 -1.93711
upperneck 29.2654 1.08784 0.317526
head 11.9957 0.308613 0.609162
rclavicle -1.2921e-015 -1.78906e-014
rhumerus -24.356 -17.2827 -77.8144
rradius 24.5548
rwrist 32.7256
rhand -18.3012 -26.1608
rfingers 7.12502
rthumb 7.97964 -55.9902
lclavicle -1.2921e-015 -1.78906e-014
lhumerus -22.3439 2.19653 85.3401
lradius 19.5398
lwrist 3.7848
lhand -23.4573 -2.4964
lfingers 7.12502
lthumb 3.00147 27.4622
rfemur -14.5348 -2.94419 20.7513
rtibia 21.7192
rfoot -14.085 -2.26549
rtoes 10.008
lfemur -14.1603 8.99442 -19.6491
ltibia 19.5025
lfoot -11.4486 3.80779
ltoes -1.57078
80
root 0.570095 17.5531 -13.8947 7.45695 -0.600195 -1.42199
lowerback -2.22891 -0.554761 0.137001
upperback 3.17628 -0.825448 1.91296
thorax 4.55328 -0.441776 1.84866
lowerneck -14.5115 0.45031 -1.96757
upperneck 29.2689 1.07974 0.348024
head 12.0005 0.305482 0.624802
rclavicle -2.78299e-015 -8.74653e-015
rhumerus -24.3452 -17.2969 -77.8109
rradius 24.5475
rwrist 32.7388
rhand -18.3093 -26.1441
rfingers 7.12502
rthumb 7.97178 -55.9738
lclavicle -2.78299e-015 -8.74653e-015
lhumerus -22.3399 2.19362 85.3511
lradius 19.5452
lwrist 3.7798
lhand -23.4722 -2.51558
lfingers 7.12502
lthumb 2.98712 27.4432
rfemur -14.5356 -2.94575 20.7548
rtibia 21.7191
rfoot -14.0843 -2.26502
rtoes 10.0144
lfemur -14.1653 8.98942 -19.6456
ltibia 19.5081
lfoot -11.4512 3.81049
ltoes -1.57474
81
root 0.569269 17.5531 -13.8947 7.46063 -0.595414 -1.42328
lowerback -2.23047 -0.55519 0.140772
upperback 3.18126 -0.826334 1.91383
thorax 4.55934 -0.442144 1.84737
lowerneck -14.5398 0.440853 -2.02334
upperneck 29.2866 1.06576 0.402882
head 12.0128 0.29989 0.653249
rclavicle -6.95746e-016 5.56597e-015
rhumerus -24.3384 -17.3068 -77.8088
rradius 24.5463
rwrist 32.743
rhand -18.3034 -26.155
rfingers 7.12502
rthumb 7.9775 -55.9844
lclavicle -6.95746e-016 5.56597e-015
lhumerus -22.3377 2.18787 85.3628
lradius 19.5491
lwrist 3.77601
lhand -23.5139 -2.59931
lfingers 7.12502
lthumb 2.94679 27.3601
rfemur -14.5387 -2.94774 20.7596
rtibia 21.7188
rfoot -14.0819 -2.26532
rtoes 10.015
lfemur -14.1732 8.98346 -19.6413
ltibia 19.514
lfoot -11.4532 3.81313
ltoes -1.5799
